<?xml version="1.0" encoding="UTF-8"?>
<svg xmlns="http://www.w3.org/2000/svg" width="1024" height="1024" viewBox="0 0 1024 1024" role="img" aria-labelledby="title desc">
  <title id="title">题有据应用图标</title>
  <desc id="desc">原卷和题卡由一条来源带连接，表示每道题都可追溯到原卷。</desc>
  <rect x="32" y="32" width="960" height="960" rx="224" fill="#163f3a"/>

  <rect x="160" y="176" width="438" height="628" rx="78" fill="#fff4dc"/>
  <path d="M238 330v-72h72M448 258h72v72M238 650v72h72M448 722h72v-72"
        fill="none" stroke="#d6a65d" stroke-width="34" stroke-linecap="round" stroke-linejoin="round"/>

  <rect x="430" y="314" width="430" height="522" rx="76" fill="#f9edcf"/>
  <rect x="548" y="438" width="214" height="48" rx="24" fill="#245e55"/>
  <rect x="548" y="532" width="246" height="48" rx="24" fill="#245e55"/>

  <path d="M354 424h62c62 0 98 35 98 94v112c0 66 40 104 108 104h126"
        fill="none" stroke="#2f9668" stroke-width="78" stroke-linecap="round" stroke-linejoin="round"/>
  <circle cx="354" cy="424" r="27" fill="#fff4dc"/>
  <circle cx="354" cy="424" r="13" fill="#2f9668"/>
  <circle cx="748" cy="734" r="42" fill="#d6a65d"/>
  <circle cx="748" cy="734" r="17" fill="#fff4dc"/>
</svg>
